<svg xmlns="http://www.w3.org/2000/svg" viewBox="0 0 512 512">
  <defs>
    <linearGradient id="grad1" x1="0%" y1="0%" x2="0%" y2="100%">
      <stop offset="0%" style="stop-color:#0E7490;stop-opacity:1" />
      <stop offset="100%" style="stop-color:#155E75;stop-opacity:1" />
    </linearGradient>
    <linearGradient id="grad2" x1="0%" y1="0%" x2="0%" y2="100%">
      <stop offset="0%" style="stop-color:#06B6D4;stop-opacity:1" />
      <stop offset="100%" style="stop-color:#0891B2;stop-opacity:1" />
    </linearGradient>
  </defs>
  
  <!-- Building -->
  <rect x="40" y="176" width="432" height="310" rx="16" fill="url(#grad1)"/>
  <rect x="72" y="208" width="368" height="270" fill="#E0F2FE"/>
  
  <!-- Cross Circle -->
  <circle cx="256" cy="144" r="112" fill="url(#grad1)"/>
  <circle cx="256" cy="144" r="90" fill="#67E8F9"/>
  
  <!-- Medical Cross -->
  <rect x="236" y="94" width="40" height="100" rx="8" fill="url(#grad1)"/>
  <rect x="206" y="124" width="100" height="40" rx="8" fill="url(#grad1)"/>
  
  <!-- Windows -->
  <rect x="100" y="240" width="50" height="90" rx="8" fill="url(#grad1)"/>
  <circle cx="125" cy="360" r="12" fill="#67E8F9"/>
  
  <rect x="170" y="320" width="172" height="140" rx="12" fill="url(#grad1)"/>
  <rect x="190" y="348" width="132" height="92" fill="#67E8F9"/>
  
  <!-- Door details -->
  <line x1="256" y1="348" x2="256" y2="440" stroke="url(#grad1)" stroke-width="8"/>
  
  <!-- Building details -->
  <rect x="362" y="240" width="50" height="90" rx="8" fill="url(#grad1)"/>
  <circle cx="387" cy="360" r="12" fill="#67E8F9"/>
  
  <!-- Foundation -->
  <rect x="0" y="470" width="512" height="24" rx="8" fill="url(#grad1)"/>
</svg>
